<svg width="71" height="65" viewBox="0 0 71 65" fill="none" xmlns="http://www.w3.org/2000/svg">
<path d="M59.2567 40.666C57.8582 38.7145 56.8307 36.5223 56.2258 34.1988H48.7644C48.7741 34.2278 48.7934 34.305 48.7934 34.305C49.6961 38.3699 51.6536 42.1253 54.4691 45.1931C51.2587 48.5619 49.0379 52.7496 48.0502 57.2972H55.3185C56.1439 54.7884 57.4854 52.4803 59.2567 50.5213C61.0331 52.4782 62.3781 54.7868 63.2045 57.2972H70.4826C69.4948 52.7496 67.274 48.5619 64.0636 45.1931C66.9024 42.0962 68.8707 38.3029 69.7683 34.1988H62.2973C61.6915 36.5237 60.6606 38.7163 59.2567 40.666ZM43.0405 39.3919C43.0122 39.3999 42.9829 39.4031 42.9536 39.4016C42.7992 39.4112 42.6448 39.4209 42.4903 39.4209C42.3262 39.4209 42.1718 39.4112 42.027 39.4016C41.9945 39.4036 41.9619 39.4004 41.9305 39.3919C40.7988 39.2998 39.7123 38.9064 38.7838 38.2528V57.2972H46.1872V38.2528C45.2587 38.9064 44.1722 39.2998 43.0405 39.3919ZM32.22 33.7259C29.2445 33.736 26.301 34.3398 23.5618 35.5019V57.2972H30.9652V40.3861C31.7378 40.079 32.5672 39.9407 33.3976 39.9807C34.151 39.9376 34.9034 40.0802 35.5888 40.3958L36.6505 34.2182C36.4953 34.1649 36.3375 34.1197 36.1775 34.083C34.8756 33.818 33.5484 33.6982 32.22 33.7259ZM9.6525 33.7259C6.35183 33.7613 3.08365 34.3823 0 35.5599V65H7.51933V57.3938C8.51231 57.6823 9.54638 57.803 10.5791 57.751C17.3069 57.751 21.8243 52.9633 21.8243 45.5792C21.8243 38.1178 17.0463 33.7259 9.6525 33.7259ZM9.43051 51.5733C8.77929 51.5977 8.12973 51.4926 7.51933 51.2644V40.2123C8.07285 40.0782 8.63914 40.0038 9.20852 39.9903C12.751 39.9903 14.1699 42.1332 14.1699 45.8012C14.1699 49.7008 12.751 51.5733 9.43051 51.5733ZM56.2258 31.5058V14.8649C57.0942 14.5607 58.0084 14.4073 58.9285 14.4112C61.0521 14.4112 62.2876 15.4826 62.2876 18.3494V31.5058H69.8165V17.8089C69.8165 11.4576 65.7432 8.15643 59.0154 8.15643C55.4964 8.17452 52.0065 8.79482 48.6968 9.99043V31.5058H56.2258ZM42.4903 26.4672C43.3951 26.4671 44.2897 26.6578 45.1158 27.027C46.2973 24.9433 46.8912 22.5781 46.8339 20.1834C46.8339 12.9344 42.2972 8.15643 35.0868 8.15643C27.8764 8.15643 23.2915 12.9344 23.2915 20.1834C23.2915 27.471 27.8764 32.2587 35.0868 32.2587C35.3764 32.2587 35.6466 32.249 35.9266 32.2394C35.9748 32.2297 36.0231 32.2297 36.0714 32.22C36.247 30.6397 36.9987 29.1795 38.1827 28.1183C39.3668 27.0571 40.9003 26.4693 42.4903 26.4672ZM31.139 20.1834C31.139 16.5541 32.6351 14.4209 35.0868 14.4209C37.5385 14.4209 38.9865 16.5541 38.9865 20.1834C38.9865 23.8514 37.5385 25.9942 35.0868 25.9942C32.6351 25.9942 31.139 23.8514 31.139 20.1834ZM9.99997 8.15643C9.17088 8.14079 8.34182 8.18597 7.51933 8.29158V0H0V30.5598C2.24903 31.8147 6.19694 32.2587 9.69114 32.2587C17.085 32.2587 21.8243 27.5579 21.8243 19.9614C21.8243 12.6255 17.0849 8.15643 9.99997 8.15643ZM9.33401 25.9942C8.71758 26.0176 8.1022 25.9259 7.51933 25.7239V14.6429C8.11534 14.5087 8.72324 14.4344 9.33401 14.4209C12.8765 14.4209 14.1699 16.5541 14.1699 20.2221C14.1699 23.8514 12.751 25.9942 9.33401 25.9942Z" fill="#D21929"/>
</svg>
