<svg width="36" height="37" viewBox="0 0 36 37" fill="none" xmlns="http://www.w3.org/2000/svg">
<path d="M14.801 17.3023C12.9948 17.3023 11.5249 15.8324 11.5249 14.0261C11.5249 12.2199 12.9948 10.75 14.801 10.75C16.6073 10.75 18.0772 12.2199 18.0772 14.0261C18.0772 15.8324 16.6073 17.3023 14.801 17.3023ZM14.801 12.9341C14.2004 12.9341 13.709 13.4233 13.709 14.0261C13.709 14.629 14.2004 15.1182 14.801 15.1182C15.4017 15.1182 15.8931 14.629 15.8931 14.0261C15.8931 13.4233 15.4017 12.9341 14.801 12.9341Z" fill="#5EBC52"/>
<path d="M21.3533 26.0386C19.547 26.0386 18.0771 24.5687 18.0771 22.7625C18.0771 20.9562 19.547 19.4863 21.3533 19.4863C23.1595 19.4863 24.6294 20.9562 24.6294 22.7625C24.6294 24.5687 23.1595 26.0386 21.3533 26.0386ZM21.3533 21.6704C20.7527 21.6704 20.2612 22.1618 20.2612 22.7625C20.2612 23.3631 20.7527 23.8545 21.3533 23.8545C21.9539 23.8545 22.4453 23.3631 22.4453 22.7625C22.4453 22.1618 21.9539 21.6704 21.3533 21.6704Z" fill="#5EBC52"/>
<path d="M12.6173 26.0387C12.3706 26.0387 12.1236 25.9558 11.9184 25.7854C11.4553 25.3988 11.3921 24.7109 11.7787 24.2478L22.6992 11.1432C23.088 10.6801 23.7759 10.6235 24.2369 11.0036C24.7 11.3902 24.7609 12.0781 24.3743 12.5434L13.4539 25.6479C13.2399 25.9032 12.9295 26.0387 12.6173 26.0387Z" fill="#5EBC52"/>
<path d="M33.5079 17.7232L33.5122 17.7244C33.7553 17.2047 33.8705 16.6287 33.8424 16.0448L33.8424 16.0438C33.8354 15.9024 33.8202 15.7584 33.7954 15.6132C33.7951 15.611 33.7947 15.6088 33.7943 15.6066C33.7912 15.5885 33.788 15.5728 33.7853 15.56C33.785 15.5584 33.7846 15.5567 33.7843 15.5551C33.7631 15.4435 33.7372 15.3442 33.7156 15.2662L33.7156 15.2662L33.7118 15.253C33.6849 15.1601 33.6543 15.0692 33.6204 14.9784C33.6137 14.9569 33.6056 14.9332 33.5961 14.9081L33.5933 14.9009L33.5905 14.8938C33.3042 14.171 32.7871 13.5555 32.1027 13.162C32.4662 12.1856 32.3889 11.0927 31.8724 10.1717L31.872 10.171C31.3622 9.2635 30.4849 8.6362 29.4707 8.46552C29.4862 7.42791 29.0549 6.42653 28.2582 5.73811L28.2577 5.7377C27.4717 5.05927 26.4377 4.78329 25.4345 4.97642C25.1034 4.00151 24.3667 3.2102 23.385 2.84269C22.4124 2.47828 21.3499 2.58963 20.4792 3.11917C19.842 2.32026 18.8843 1.8375 17.8423 1.8375C16.7996 1.8375 15.8423 2.32075 15.2049 3.11975C14.3339 2.59034 13.2713 2.47869 12.2986 2.8434L33.5079 17.7232ZM33.5079 17.7232L33.5119 17.7251C33.3816 18.0031 33.2152 18.2635 33.0167 18.5C33.5938 19.1843 33.886 20.062 33.8431 20.9554L33.843 20.9564C33.836 21.1003 33.8204 21.2466 33.795 21.3941L33.7946 21.396C33.7711 21.5309 33.7389 21.6512 33.7179 21.7286L33.7149 21.7395L33.7117 21.7503C33.6851 21.8412 33.6547 21.9318 33.6205 22.0235C33.6151 22.0405 33.6089 22.0592 33.6015 22.0791L33.5967 22.0923L33.5915 22.1054C33.3052 22.828 32.7882 23.4437 32.1037 23.8375C32.4673 24.8139 32.3893 25.9069 31.8735 26.8274L31.8731 26.828C31.3632 27.7368 30.4856 28.3634 29.4716 28.5339C29.4871 29.5713 29.0558 30.573 28.2586 31.2615L28.2586 31.2616C27.4736 31.9393 26.4396 32.2168 25.4354 32.0231C25.1042 32.9976 24.3681 33.7891 23.3864 34.1567C22.4149 34.5206 21.3519 34.4107 20.48 33.8803C19.8426 34.6795 18.885 35.1625 17.8426 35.1625C16.8002 35.1625 15.8425 34.6795 15.205 33.8801M33.5079 17.7232L15.205 33.8801M6.21314 8.46632C6.19746 7.42861 6.6288 6.42722 7.42589 5.73883L7.42591 5.73881C8.21169 5.06022 9.24685 4.7839 10.2495 4.97712C10.5805 4.00197 11.3173 3.21122 12.2983 2.84352L6.21314 8.46632ZM6.21314 8.46632C5.19941 8.63671 4.32121 9.26321 3.81155 10.1726L6.21314 8.46632ZM2.09218 14.8966C2.37851 14.173 2.89583 13.5565 3.58105 13.1625C3.21739 12.186 3.29523 11.0936 3.81131 10.173L2.09218 14.8966ZM2.09218 14.8966C2.08022 14.9268 2.07049 14.9549 2.06259 14.9802C2.02728 15.0753 1.99806 15.1652 1.97319 15.2495L1.96983 15.2609L1.96669 15.2724C1.94483 15.3526 1.91349 15.4704 1.89018 15.603L1.89016 15.603L1.88927 15.6083C1.7149 16.6279 1.9857 17.666 2.63285 18.4579L2.63431 18.4597C2.64525 18.473 2.65632 18.4863 2.6675 18.4996C2.46747 18.7368 2.3018 18.9974 2.17237 19.2736L2.172 19.2744C1.92889 19.7941 1.81369 20.3701 1.84179 20.954L1.84184 20.9548C1.84889 21.0991 1.86448 21.2448 1.88978 21.3919L1.89064 21.3968C1.89328 21.4117 1.89587 21.4248 1.8981 21.4354C1.89893 21.4394 1.89974 21.4431 1.9005 21.4466C1.92151 21.5575 1.94722 21.6554 1.96621 21.7254L1.96897 21.7356L1.97191 21.7458C1.99831 21.8366 2.02869 21.9285 2.06366 22.0223C2.06756 22.0347 2.07188 22.0477 2.07666 22.0613L2.08387 22.0817L2.09184 22.1018C2.37789 22.8251 2.89512 23.4427 3.581 23.8371C3.21697 24.8141 3.29537 25.9071 3.81167 26.8273C4.32143 27.7359 5.19944 28.3629 6.21346 28.5333C6.19778 29.5709 6.62918 30.5725 7.4266 31.2609C8.21204 31.9391 9.24674 32.2154 10.2498 32.0224C10.5807 32.9971 11.3171 33.7884 12.2988 34.1562L2.09218 14.8966ZM15.205 33.8801C14.3341 34.4095 13.2716 34.5209 12.299 34.1563L15.205 33.8801ZM15.538 3.35021L15.538 3.35019L15.538 3.35021ZM1.9096 21.4853C1.90988 21.4864 1.90948 21.4848 1.90899 21.4828L1.9096 21.4853Z" stroke="#5EBC52" stroke-width="2.325"/>
</svg>
