<svg width="179" height="52" viewBox="0 0 179 52" fill="none" xmlns="http://www.w3.org/2000/svg">
<path fill-rule="evenodd" clip-rule="evenodd" d="M123.726 38.0082C121.041 40.8885 117.593 42.3514 113.479 42.3514C109.364 42.3514 105.916 40.8885 103.232 38.0082C100.67 35.2646 99.1969 30.8775 99.1969 25.9761C99.1969 21.192 100.686 16.865 103.276 14.1019C105.987 11.2217 109.419 9.75224 113.476 9.74085C117.539 9.75224 120.971 11.2217 123.681 14.1019C126.275 16.865 127.76 21.192 127.76 25.9761C127.76 30.8775 126.289 35.2646 123.726 38.0082ZM87.6986 25.9761C87.6986 26.1974 87.7083 26.4155 87.7148 26.6336C83.5978 22.886 77.6453 21.4914 74.0083 20.764C67.2795 19.345 62.139 18.0464 62.139 13.2558C62.139 9.87591 65.1657 7.4171 70.98 7.83857C76.293 8.22423 78.5305 11.4723 79.144 14.6064C79.2319 15.1206 79.4694 15.4949 80.0553 15.4998L89.6106 15.5811C89.6562 15.5811 89.6952 15.5762 89.7359 15.573C88.3885 18.7153 87.6986 22.2139 87.6986 25.9761ZM71.447 43.5539C66.8255 43.5539 61.7338 41.912 60.5605 35.5591C60.4613 34.9522 60.1749 34.7016 59.7095 34.6886L50.4715 34.5649V18.2352C51.6854 23.021 55.7064 26.3341 64.4025 28.2917C70.2233 29.6847 80.3205 30.5699 80.3205 36.5453C80.3205 40.7111 77.2531 43.6516 71.447 43.5539ZM25.4343 42.3579C17.9814 42.3579 11.1533 36.4916 11.1533 25.9826C11.1533 17.7373 16.2727 9.74736 25.4831 9.74736C29.4731 9.74736 39.5899 11.1143 39.5899 25.9826C39.5899 40.8901 29.0273 42.3579 25.4326 42.3579H25.4343ZM138.984 21.9714C141.104 24.7996 144.931 26.8939 151.149 28.2934C156.968 29.6863 167.067 30.5716 167.067 36.5469C167.067 40.7127 163.998 43.6532 158.194 43.5556C153.574 43.5556 148.479 41.9136 147.307 35.5608C147.21 34.9538 146.923 34.7032 146.456 34.6902L137.897 34.5763C138.8 31.9124 139.26 29.0273 139.26 25.9778C139.26 24.6376 139.167 23.299 138.984 21.9714ZM157.562 51.8709C167.812 51.8709 179.893 48.055 178.948 35.6779C177.903 24.6906 166.47 21.908 160.755 20.7656C154.025 19.3466 148.884 18.0481 148.884 13.2574C148.884 9.87754 151.911 7.41873 157.727 7.8402C163.04 8.22586 165.277 11.4739 165.891 14.608C165.978 15.1222 166.218 15.4965 166.802 15.5014L176.357 15.5828C177.085 15.5876 177.311 15.2101 177.22 14.6926C175.348 3.2399 165.78 0 156.975 0C148.183 0 137.589 2.4702 136.837 13.4071C136.811 13.8302 136.801 14.2468 136.801 14.6552C135.402 11.7456 133.384 9.07367 130.784 6.70761C125.983 2.37907 119.998 0.0602091 113.471 0.00325454H113.255C110.137 0.00325454 107.086 0.577681 104.184 1.71677C101.235 2.88328 98.5217 4.57417 96.175 6.70761C93.713 8.94674 91.7684 11.4592 90.3787 14.1882C88.3088 3.1504 78.8999 0 70.2265 0C62.1553 0 52.5641 2.08779 50.4715 10.9027V2.15288C50.471 1.92874 50.3817 1.71393 50.223 1.55559C50.0644 1.39725 49.8494 1.30833 49.6253 1.30833H40.6265C40.4023 1.30876 40.1875 1.3981 40.0292 1.55674C39.8708 1.71538 39.7819 1.93037 39.7819 2.15451V4.51405C39.7819 4.91111 39.5167 5.04942 39.1928 4.81835C35.992 2.49623 31.2566 0.00488182 25.5579 0.00488182C22.3555 0.00488182 19.2978 0.567918 16.468 1.67772C13.6365 2.79077 10.945 4.48476 8.47483 6.71412C5.66291 9.27219 3.52142 12.1883 2.11708 15.381C0.712745 18.5737 0 22.1407 0 25.981C0 29.5659 0.631381 32.9278 1.87462 35.966C3.11785 39.0041 5.01037 41.8144 7.50172 44.3204C9.99145 46.8264 12.7773 48.7303 15.7764 49.9833C18.7755 51.2314 22.0804 51.8644 25.6051 51.8644C31.6618 51.8644 36.2068 49.2852 39.1847 46.9403C39.5134 46.6897 39.7819 46.8247 39.7819 47.2348V49.7132C39.7819 50.1786 40.1627 50.5593 40.6281 50.5593H49.6269C49.8509 50.5585 50.0655 50.469 50.2237 50.3104C50.382 50.1519 50.471 49.9372 50.4715 49.7132V41.3652C54.7138 51.3404 65.5237 51.8693 70.8156 51.8693C79.6615 51.8693 89.8628 49.0216 91.8871 40.2864C92.8603 41.7321 93.9704 43.0808 95.2019 44.3139C100.025 49.168 106.345 51.7782 113.488 51.8563H113.78C117.172 51.8563 120.444 51.2054 123.507 49.9182C126.599 48.6108 129.402 46.7064 131.757 44.3139C133.518 42.5578 135.023 40.5614 136.225 38.3841C139.433 51.2444 151.787 51.8709 157.562 51.8709Z" fill="#58595B"/>
</svg>
