<svg width="82" height="83" viewBox="0 0 82 83" fill="none" xmlns="http://www.w3.org/2000/svg">
<mask id="mask0_10_1202" style="mask-type:luminance" maskUnits="userSpaceOnUse" x="0" y="0" width="82" height="83">
<path d="M82 0H0V82.0016H82V0Z" fill="white"/>
</mask>
<g mask="url(#mask0_10_1202)">
<path d="M40.9992 0H0V41.0008V82H40.9992H82V41.0008V0H40.9992Z" fill="#002A5F"/>
</g>
<mask id="mask1_10_1202" style="mask-type:luminance" maskUnits="userSpaceOnUse" x="0" y="0" width="82" height="83">
<path d="M82 0H0V82.0016H82V0Z" fill="white"/>
</mask>
<g mask="url(#mask1_10_1202)">
<path d="M58.9155 21.1807H60.6145C62.2214 21.179 62.9676 22.6772 62.9676 23.8101V41.444C62.9693 42.7147 62.2214 43.8928 60.7821 43.8843H58.9155V21.1807ZM60.6252 20.5269H53.8665V21.1807H55.6549V60.8189H53.8665V61.52H61.4916V60.8189H58.9152V44.6901H61.1368C64.3693 44.6901 66.2091 42.9875 66.2091 40.6989V24.8586C66.2094 22.5758 64.6213 20.5233 60.6252 20.5269Z" fill="white"/>
</g>
<mask id="mask2_10_1202" style="mask-type:luminance" maskUnits="userSpaceOnUse" x="0" y="0" width="82" height="83">
<path d="M82 0H0V82.0016H82V0Z" fill="white"/>
</mask>
<g mask="url(#mask2_10_1202)">
<path d="M24.852 21.0532C24.852 21.707 24.4707 21.6578 24.1651 21.4432C23.0671 20.6721 21.721 20.1176 20.5186 20.1266C18.5585 20.1408 15.7497 21.0898 15.7407 25.2226V55.6091C15.7705 60.8871 18.3103 61.8733 20.8141 61.8998C22.7632 61.9184 23.6912 60.8893 24.4797 60.5457C24.8957 60.3642 25.3509 60.7841 25.3509 61.5639H26.1602V42.2321H27.7841V41.5821H20.9256V42.2321H22.9152V58.8606C22.9152 60.209 21.9992 61.2293 20.8452 61.2315C19.7336 61.2315 18.8819 60.1756 18.8819 58.8606V24.0145C18.8802 23.0671 19.0483 20.8646 20.5131 20.875C23.3328 20.896 24.8296 29.1419 24.8504 33.4076H25.6597V20.5043H24.8542L24.852 21.0532Z" fill="white"/>
</g>
<mask id="mask3_10_1202" style="mask-type:luminance" maskUnits="userSpaceOnUse" x="0" y="0" width="82" height="83">
<path d="M82 0H0V82.0016H82V0Z" fill="white"/>
</mask>
<g mask="url(#mask3_10_1202)">
<path d="M37.3026 43.9405L39.2783 26.2523L41.2952 43.9405H37.3026ZM41.3777 44.6641L43.2151 60.8104H41.4092V61.5112H48.1955V60.8104H46.4073L41.8984 20.5181H39.0107L34.8221 58.5729C34.5756 59.9398 34.4479 60.782 32.4829 60.8115V61.5115H37.5718V60.8107C36.1316 60.8118 35.4795 59.8909 35.6211 58.9121L37.2209 44.6643H41.3777V44.6641Z" fill="white"/>
</g>
</svg>
