<svg width="104" height="50" viewBox="0 0 104 50" fill="none" xmlns="http://www.w3.org/2000/svg">
<path fill-rule="evenodd" clip-rule="evenodd" d="M67.3498 18.0785C66.8555 17.4199 66.7699 16.2553 65.767 16.1519C64.7938 15.8889 63.8249 15.6085 62.8426 15.3809C60.9189 15.694 58.9952 16.0072 57.0715 16.3203C56.8461 17.3572 56.6207 18.394 56.3953 19.4309C59.5058 19.8366 62.6163 20.2423 65.7269 20.648C66.5383 21.189 67.3497 21.73 68.1612 22.2709C70.28 22.4963 72.3987 22.7217 74.5175 22.9471C75.5093 22.5865 76.501 22.2258 77.4928 21.8652C74.4093 20.8701 71.2514 20.0771 68.2544 18.8379C67.886 18.6681 67.6303 18.3579 67.3498 18.0785Z" fill="#DB0026"/>
<path d="M78.6873 21.7306C78.4788 21.4589 78.1429 21.3502 77.9106 21.246C77.6834 21.1387 77.716 20.9171 77.526 20.8528C77.3315 20.7903 76.9914 21.1866 76.7271 21.1043C76.4631 21.0178 76.4825 20.5245 76.262 20.4516C76.0362 20.3804 75.6437 20.7503 75.4384 20.6847C75.2317 20.6246 75.1914 20.1063 74.992 20.0403C74.7947 19.9802 74.3758 20.3488 74.1715 20.2856C73.9662 20.2164 73.953 19.7117 73.7252 19.6367C73.4983 19.5672 73.0996 19.9444 72.9016 19.8764C72.697 19.8131 72.6772 19.3095 72.4597 19.2362C72.2398 19.1663 71.8366 19.5363 71.6337 19.4696C71.4246 19.4022 71.3676 18.8846 71.1773 18.8221C70.9827 18.7627 70.6031 19.068 70.2943 19.0503C68.1514 18.8506 67.3316 17.5025 67.1857 17.9012C67.0426 18.292 67.6324 19.2428 68.3737 19.5637C68.9649 19.8208 75.3481 21.5878 75.5155 21.6667C75.6784 21.7473 76.0817 21.9268 75.9382 22.1596C75.7159 22.4573 75.0927 22.1627 74.934 22.0314C74.7735 21.898 74.81 21.8494 74.6596 21.8091C74.3171 21.7278 74.1274 22.3513 73.7658 22.268C73.4365 22.194 73.4594 21.5322 73.1249 21.4551C72.756 21.3655 72.589 21.9928 72.2378 21.9109C71.9463 21.8452 71.9064 21.1713 71.5938 21.096C71.2346 21.0091 71.0717 21.6378 70.6976 21.5507C70.3759 21.4753 70.394 20.8181 70.0574 20.7371C69.7211 20.6576 69.4866 21.2669 69.1692 21.195C68.8506 21.121 68.8041 20.4495 68.5213 20.3825C68.232 20.3182 68.0041 20.6597 67.6154 20.7104C67.6154 20.7104 66.4986 21.0122 64.7333 19.1681C62.9642 17.3278 62.2389 16.97 61.2322 17.7199C59.5885 18.944 58.5676 18.1347 58.2703 17.7706C57.9128 17.3535 58.2869 16.97 58.2869 16.97C58.2869 16.97 58.809 17.7759 59.4662 17.7904C60.525 17.822 61.3236 16.377 63.1382 16.3513C65.4371 16.2686 66.0363 17.0853 66.6647 17.1502C67.2468 17.2072 67.441 17.1134 67.844 16.8797H67.8415C68.1674 16.7636 68.4508 17.3934 68.7923 17.2663C69.1532 17.1301 68.8892 16.4955 69.2779 16.3492C69.6412 16.2193 69.8785 16.8571 70.2262 16.7275C70.592 16.5941 70.3589 15.9418 70.7101 15.8146C71.0717 15.684 71.2829 16.3284 71.658 16.1908C72.0349 16.0567 71.7914 15.411 72.1346 15.2811C72.4886 15.1519 72.7446 15.7862 73.0923 15.6625C73.4216 15.5447 73.2333 14.8695 73.5762 14.7465C73.9322 14.6187 74.1622 15.255 74.5415 15.1157C74.8534 15.007 74.6808 14.331 75.0042 14.2084C75.3272 14.0879 75.6273 14.7145 75.9636 14.5888C76.279 14.4724 76.0945 13.8006 76.4301 13.6749C76.7854 13.5467 77.0595 14.1733 77.3954 14.0552C77.7278 13.9357 77.4757 13.3939 77.9092 13.1785C77.9092 13.1785 78.5094 12.9812 78.4716 12.5407C78.4667 12.4667 78.3427 11.525 77.3541 11.3253C76.4033 11.1343 68.8958 13.2108 68.7985 13.091C68.1076 11.7258 67.2222 12.1051 67.0874 12.1357C66.9498 12.1704 66.1117 12.5272 65.1835 12.1704C63.3602 11.3455 61.9047 13.4439 60.9061 13.1677C59.9866 12.9093 59.2835 13.0583 58.898 13.1896C58.545 13.3119 57.9729 13.7714 56.7599 13.3543C47.386 10.1536 40.0597 12.9517 40.0597 12.9517C35.9289 14.3317 35.4005 12.9517 35.4005 12.9517C35.4005 12.9517 34.041 11.1051 43.6126 8.90244C57.3703 5.74213 57.785 0.512222 57.6221 0.181532C57.3963 -0.298177 57.3102 0.266983 56.8572 0.786987C56.4768 1.21911 56.035 1.00548 56.035 1.00548C55.6022 0.797755 55.3253 1.29205 55.3253 1.29205C55.3253 1.29205 54.7685 2.15629 54.2759 1.66477C53.8028 1.19167 53.1744 2.25946 52.9396 2.30184C52.6586 2.35151 52.5214 2.2143 52.1442 2.04097C51.579 1.79122 50.9725 2.8208 50.662 2.89375C50.1864 3.00247 49.8526 2.33345 49.4438 2.61586C48.2214 3.45995 48.0289 3.57736 47.6996 3.24875C47.4565 3.00039 47.4207 2.73083 46.6041 3.51275C45.909 4.17934 45.5762 4.30404 45.2973 3.88026C45.01 3.4537 45.084 2.87152 43.8898 4.01747C43.3197 4.56491 43.028 4.57534 42.7014 4.3294C42.4555 4.1446 42.4572 3.26334 41.6006 4.06124C40.8243 4.77959 40.2605 5.0943 40.0406 4.45654C39.7978 3.73993 38.8829 4.58853 38.6713 4.78827C38.4518 4.988 37.9815 5.51634 37.6518 4.97098C37.3225 4.4225 36.5333 5.24123 36.064 5.76089C35.7021 6.16452 35.4092 5.85294 35.0275 5.59693C34.5933 5.29924 33.2938 7.11317 33.176 7.2219C33.0572 7.32507 32.9666 7.2219 32.6689 6.96937C32.2114 6.58171 30.9772 8.73675 30.7775 8.87743C30.7775 8.87743 30.6931 9.06327 30.3565 8.74196C29.8775 8.28657 27.3358 11.6327 26.3764 15.4186C25.1491 20.272 27.1045 23.9937 27.1045 23.9937C27.1045 23.9937 27.6918 24.0117 27.9419 23.6147L28.3227 22.7567C28.6311 22.0415 29.1369 22.2666 29.1369 22.2666L27.9385 25.8347C27.7492 26.3047 27.8634 26.9695 28.2824 27.5979C28.677 28.2294 28.949 28.6563 29.2654 28.9498C30.2384 29.8662 30.139 28.7824 30.1644 28.6469C30.2783 28.0668 30.9206 28.5125 31.4253 28.7904C32.3406 29.3042 32.2388 28.1697 32.4396 27.7997C32.5789 27.5347 33.0291 27.5229 33.5175 27.9321C33.8978 28.2499 34.2758 27.1731 34.2758 27.1731C34.7503 24.8787 33.6356 24.6134 33.0326 24.5797L31.8119 24.5237C31.8119 24.5237 31.8922 24.1746 32.0193 23.8478L32.0738 23.6161C33.4049 20.2991 31.1804 19.6589 30.5149 19.7117C29.7805 19.7774 29.832 19.3095 29.832 19.3095C29.832 19.3095 33.8527 18.5178 33.1031 22.7817C33.1031 22.7817 32.9551 23.5244 32.8662 23.9117L33.9711 24.0406C34.9219 24.1594 35.0907 25.2841 35.0907 25.2841C35.0907 25.2841 38.5879 26.2085 40.5714 25.8389C40.5714 25.8389 41.4579 25.6277 41.7041 25.076C41.7041 25.076 42.9887 22.0495 46.7388 21.9216C46.7388 21.9216 46.8708 22.3135 46.2716 22.5174C45.5533 22.7595 43.1596 22.9495 42.6622 25.6992V25.71C42.608 26.1612 42.7289 27.122 43.7077 27.567C44.5414 27.9432 44.8353 29.4615 45.0083 29.8714C45.4939 31.0354 46.2209 29.9228 46.2209 29.9228C46.2209 29.9228 46.6815 28.9835 47.0768 29.5046C47.7448 30.3834 48.055 29.9405 48.2068 29.3809C48.3728 28.7769 48.6146 28.5136 49.3138 29.2479C49.6126 29.5668 50.1989 29.3205 50.2573 28.7748C50.3809 27.5736 51.1924 28.5288 51.3084 28.575C51.4474 28.6278 52.297 28.4368 51.8215 27.0821C51.8215 27.0821 51.1792 25.7913 48.2836 25.2344C47.6041 25.1056 47.7121 24.6137 47.7121 24.6137L48.3499 24.7033C48.5403 24.7342 50.2243 24.9211 50.4035 24.9496C57.4672 25.6468 62.8266 23.2506 62.9878 23.0797C68.4748 24.1312 75.9358 23.7727 77.3364 23.268C78.7442 22.772 78.8491 21.9498 78.6873 21.7306ZM67.358 12.9746C67.4726 12.7898 67.581 12.6852 67.6807 12.6349C68.1066 12.3928 68.3782 13.1507 68.3265 13.1785C68.324 13.1799 68.3143 13.183 68.3101 13.1847C68.3094 13.1858 68.3094 13.1886 68.3087 13.1896C68.2417 13.2219 67.4202 13.455 67.3392 13.4015C67.1767 13.2886 67.358 12.9746 67.358 12.9746ZM64.2383 13.2143C64.2383 13.2143 64.3443 13.0805 64.5496 13.0125C64.7521 12.9388 65.0581 12.9263 65.4635 13.1875C65.9296 13.4838 65.9178 13.7152 65.9178 13.7152C65.9025 13.7228 65.8817 13.7305 65.8584 13.7388C65.5204 13.8694 64.1341 14.0396 64.1341 14.0396C63.8646 13.5429 64.2383 13.2143 64.2383 13.2143ZM38.3778 6.50494C38.6109 6.68453 38.3875 7.71863 38.2215 7.56614L37.0241 6.93289C37.0241 6.93289 38.1392 6.33056 38.3778 6.50494ZM36.4305 7.16528C36.666 7.3407 36.4454 8.37723 36.2783 8.223L35.0844 7.58837C35.0844 7.58837 36.1939 6.98569 36.4305 7.16528ZM35.7569 9.18728C35.9935 9.36409 35.7715 10.4024 35.6027 10.2523L34.4067 9.61002C34.4067 9.61002 35.519 9.01186 35.7569 9.18728ZM34.6172 11.9023L33.4199 11.2663C33.4199 11.2663 34.5335 10.6629 34.7697 10.8404C35.0091 11.0172 34.7805 12.0548 34.6172 11.9023ZM34.3918 13.95L33.1979 13.314C33.1979 13.314 34.3091 12.7134 34.546 12.8871C34.7826 13.0621 34.562 14.0955 34.3918 13.95ZM34.3699 7.88606C34.6075 8.06252 34.3835 9.09454 34.2164 8.9476L33.0183 8.30949C33.0183 8.30949 34.1341 7.70717 34.3699 7.88606ZM33.3313 9.46239C33.5658 9.63851 33.3438 10.6709 33.1785 10.5239L31.9828 9.88792C31.9828 9.88792 33.0947 9.2835 33.3313 9.46239ZM31.1971 11.9356C31.1971 11.9356 32.3128 11.3302 32.5463 11.5094C32.7842 11.6848 32.5601 12.7189 32.3931 12.5692L31.1971 11.9356ZM32.1138 14.5259L30.9202 13.8875C30.9202 13.8875 32.0335 13.2886 32.2684 13.4654C32.506 13.6412 32.2833 14.6746 32.1138 14.5259ZM31.2627 10.1804C31.4983 10.3527 31.2756 11.3889 31.1085 11.2392L29.9167 10.6011C29.9167 10.6011 31.0238 10.0022 31.2627 10.1804ZM30.187 12.266C30.4239 12.4414 30.2019 13.4817 30.031 13.3286L28.8378 12.6936C28.8378 12.6936 29.9508 12.0958 30.187 12.266ZM28.6151 14.7368C28.6151 14.7368 29.7277 14.1386 29.9636 14.3147C30.2022 14.4891 29.9751 15.5263 29.8111 15.3759L28.6151 14.7368ZM30.7483 17.0738L29.5537 16.4371C29.5537 16.4371 30.667 15.8341 30.9036 16.0109C31.1401 16.1884 30.9143 17.2218 30.7483 17.0738ZM32.4618 18.4619L31.2669 17.828C31.2669 17.828 32.3809 17.2249 32.6171 17.4C32.8516 17.5737 32.6255 18.6151 32.4618 18.4619ZM32.9975 16.295L31.8019 15.6562C31.8019 15.6562 32.9155 15.0581 33.1517 15.2293C33.3883 15.4065 33.1642 16.4406 32.9975 16.295ZM34.587 19.397L33.3942 18.7613C33.3942 18.7613 34.5012 18.1597 34.7402 18.3361C34.9761 18.5136 34.7565 19.5429 34.587 19.397ZM35.1609 17.401L33.967 16.7654C33.967 16.7654 35.0782 16.1672 35.3137 16.3437C35.5499 16.5177 35.33 17.5535 35.1609 17.401ZM35.5562 15.5145L34.3623 14.8774C34.3623 14.8774 35.4735 14.2793 35.7121 14.4551C35.949 14.6329 35.7229 15.6632 35.5562 15.5145ZM37.236 19.1559L36.0418 18.5161C36.0418 18.5161 37.1533 17.919 37.3916 18.0923C37.631 18.2684 37.4045 19.307 37.236 19.1559ZM37.7532 17.1687L36.5597 16.534C36.5597 16.534 37.673 15.9293 37.9095 16.1082C38.1423 16.2791 37.9182 17.317 37.7532 17.1687ZM38.1864 15.0633L36.9922 14.4269C36.9922 14.4269 38.1041 13.8305 38.3427 14.0035C38.5775 14.1803 38.3535 15.2133 38.1864 15.0633ZM39.8642 18.7832L38.6661 18.1472C38.6661 18.1472 39.7798 17.5449 40.0184 17.7203C40.2529 17.9012 40.0267 18.9364 39.8642 18.7832ZM40.2654 16.6573L39.0715 16.0182C39.0715 16.0182 40.1851 15.4183 40.4206 15.5927C40.6575 15.7712 40.4331 16.8011 40.2654 16.6573ZM40.6819 14.4749L39.4876 13.8378C39.4876 13.8378 40.5992 13.2386 40.8368 13.413C41.0726 13.5936 40.8496 14.6249 40.6819 14.4749ZM42.4798 17.9429L41.2842 17.3125C41.2842 17.3125 42.3975 16.7105 42.6309 16.8856C42.8709 17.061 42.6469 18.094 42.4798 17.9429ZM42.8067 15.849L41.6093 15.2161C41.6093 15.2161 42.7219 14.6152 42.9567 14.7885C43.1996 14.966 42.972 16.0046 42.8067 15.849ZM43.2214 13.7968L42.0234 13.1642C42.0234 13.1642 43.1388 12.5595 43.3732 12.7339C43.6094 12.9124 43.3861 13.95 43.2214 13.7968ZM45.0513 17.5004L43.8564 16.8633C43.8564 16.8633 44.9666 16.2613 45.2056 16.4375C45.4446 16.6153 45.2191 17.6473 45.0513 17.5004ZM45.3775 15.5454L44.1815 14.9111C44.1815 14.9111 45.2962 14.305 45.5307 14.4856C45.7669 14.6565 45.5436 15.6965 45.3775 15.5454ZM45.7711 13.4599L44.5737 12.8249C44.5737 12.8249 45.6874 12.2173 45.926 12.3983C46.1622 12.5755 45.9409 13.6075 45.7711 13.4599ZM47.427 17.5372L46.2345 16.9012C46.2345 16.9012 47.346 16.2971 47.5822 16.4774C47.8191 16.6514 47.5947 17.6855 47.427 17.5372ZM47.8216 15.4381L46.6235 14.8035C46.6235 14.8035 47.7389 14.198 47.9758 14.3776C48.2103 14.5551 47.9862 15.5875 47.8216 15.4381ZM48.269 13.3487L47.073 12.7137C47.073 12.7137 48.1867 12.1083 48.4236 12.2885C48.6622 12.4636 48.4361 13.4998 48.269 13.3487ZM49.9172 17.5372L48.7212 16.8981C48.7212 16.8981 49.8332 16.2975 50.0697 16.4778C50.3059 16.6514 50.086 17.6855 49.9172 17.5372ZM50.2997 15.5545L49.1068 14.9164C49.1068 14.9164 50.2173 14.3206 50.4535 14.4905C50.6908 14.6687 50.4678 15.7056 50.2997 15.5545ZM50.7519 13.5255L49.5601 12.8902C49.5601 12.8902 50.6717 12.2903 50.9093 12.4636C51.1424 12.6397 50.919 13.6752 50.7519 13.5255ZM52.2581 17.8366L51.0625 17.194C51.0625 17.194 52.1761 16.5983 52.4123 16.7758C52.6513 16.9481 52.428 17.9846 52.2581 17.8366ZM52.6808 15.914L51.4859 15.28C51.4859 15.28 52.6006 14.6791 52.8351 14.8549C53.0741 15.0341 52.8434 16.0665 52.6808 15.914ZM53.1373 13.95L51.9392 13.3171C51.9392 13.3171 53.0536 12.7151 53.2915 12.8871C53.527 13.0621 53.2998 14.0955 53.1373 13.95ZM55.0002 16.3287L53.8066 15.6993C53.8066 15.6993 54.9179 15.0959 55.1565 15.2689C55.3913 15.4468 55.1676 16.4809 55.0002 16.3287Z" fill="#004526"/>
<path d="M23.595 34.4397C23.3456 33.7773 22.8715 33.4918 22.003 33.4786C21.9238 33.4762 17.9062 33.4824 17.9062 33.4824L11.9597 49.6741C11.9597 49.6741 14.8522 49.6741 14.8543 49.6741C15.1037 49.6921 15.3357 49.6529 15.5442 49.5591C16.1076 49.3024 16.3837 48.6494 16.464 48.4267C16.464 48.4323 17.273 46.1709 17.3286 46.0229C17.7426 46.0229 22.9927 46.0208 23.3112 46.0208C23.4363 46.4023 24.5266 49.6668 24.5266 49.6668H28.4442L25.9592 41.7868L23.595 34.4397ZM22.3886 42.6976C21.7946 42.6976 18.5916 42.6983 18.3575 42.6983C18.7924 41.5079 19.8747 38.4963 20.3371 37.277C20.7366 38.5067 22.3782 42.6577 22.3886 42.6976Z" fill="black"/>
<path d="M51.785 33.3525H51.7829C47.1487 33.3588 43.7876 36.8373 43.7876 41.6198C43.7876 46.3057 47.223 49.8409 51.785 49.8409C56.3444 49.8409 59.9195 46.2321 59.9195 41.6198C59.9195 36.9832 56.3444 33.3525 51.785 33.3525ZM51.901 46.2286C49.5389 46.2286 47.6878 44.1858 47.6878 41.576C47.6878 38.9903 49.499 37.0422 51.8982 37.0422C54.2801 37.0422 56.0075 38.9475 56.0075 41.576C56.0072 44.2302 54.2408 46.2286 51.901 46.2286Z" fill="black"/>
<path d="M70.4029 40.1671L70.2507 40.1226C70.2549 40.1247 68.7439 39.6651 68.7401 39.661L68.5143 39.5807C67.2801 39.1347 66.4037 38.761 66.4037 38.0423C66.4037 38.0245 66.4037 38.0061 66.4037 37.9895C66.5263 36.797 68.7404 36.7841 68.7619 36.7841C69.9826 36.7841 70.9212 36.971 72.1102 37.4486L72.1355 37.458L72.1866 37.4729C72.461 37.5285 72.7014 37.5362 72.8959 37.4931L73.2252 37.3684C73.6976 37.1086 74.1676 35.7319 74.3479 35.1522L74.4063 34.9664L74.2607 34.833C74.2037 34.7781 73.8574 34.4929 72.5979 34.0229C71.3168 33.5432 69.5025 33.4682 69.5025 33.4682L68.6074 33.4644C63.9325 33.4644 62.1478 36.3492 62.0912 38.2868C62.0526 40.2171 63.1513 41.2106 64.8124 42.113C65.5071 42.4979 66.7764 42.8519 67.6966 43.1093C67.6917 43.1051 68.649 43.3885 68.649 43.3885C70.3904 43.9356 71.0559 44.5432 70.9323 45.4856C70.8767 45.7972 70.2883 46.3126 68.9513 46.3126C67.9338 46.3126 67.0147 46.1563 66.0577 45.8225C65.5982 45.6398 65.1226 45.4039 64.6203 45.1059L64.5964 45.0906L64.5449 45.0684C64.2671 44.9649 64.018 44.9215 63.8044 44.9395L63.4365 45.0187C62.8998 45.2195 62.1533 46.5822 61.855 47.1585L61.7375 47.386L61.9404 47.5468C61.9765 47.5711 62.8071 48.2315 63.5126 48.6445C64.3435 49.1048 65.2761 49.4382 66.3776 49.6609C66.8216 49.7418 67.5267 49.8443 68.6317 49.8443C72.254 49.8443 74.8856 48.0092 75.1882 45.2768C75.3198 42.7977 73.7987 41.18 70.4029 40.1671Z" fill="black"/>
<path d="M78.1471 33.5021C77.9967 33.4997 77.2065 33.5153 76.7521 33.9356C76.543 34.1277 76.4336 34.3844 76.4336 34.6738L76.4312 37.2356C76.4312 37.2356 80.8013 37.2321 81.3738 37.2321C81.3738 37.8345 81.3738 49.6803 81.3738 49.6803L85.4223 49.6768C85.4223 49.6768 85.4223 37.8334 85.4223 37.2321C85.9621 37.2314 88.6035 37.2314 88.6035 37.2314C88.7532 37.2314 89.5417 37.2144 89.9978 36.7962C90.2045 36.5999 90.317 36.3491 90.317 36.0556V33.5021H78.1471Z" fill="black"/>
<path d="M8.69938 46.0159C8.69938 46.0159 5.29973 46.0159 4.15447 46.0159C4.15447 45.4188 4.14162 34.9791 4.14162 34.9791C4.14162 34.5209 4.00476 34.1572 3.72895 33.903C3.28849 33.4896 2.63302 33.4917 2.38847 33.4969L0 33.4917L0.00625255 49.674H10.1382L10.1458 47.1025C10.1458 46.7732 10.0051 46.0159 8.69938 46.0159Z" fill="black"/>
<path d="M37.6692 36.9419C38.6512 36.8766 39.4776 36.9419 40.2571 37.1552C40.6757 37.2948 41.0536 37.3226 41.3739 37.2323C41.3749 37.2316 41.6969 37.0888 41.6969 37.0888C42.1502 36.8096 42.4747 35.3871 42.6278 34.5673L42.6629 34.3752L42.4979 34.2564C42.4566 34.2262 42.3277 34.1363 40.8604 33.7403C39.5241 33.38 38.3348 33.3359 37.7484 33.3401L37.6838 33.3408C34.3307 33.3408 29.2811 35.5542 29.1362 41.6487V41.6834C29.2811 47.78 34.3311 49.9927 37.6862 49.9927L37.7484 49.9951C38.3348 49.9976 39.5221 49.9496 40.8604 49.5901C42.3281 49.1976 42.4566 49.1066 42.4993 49.0757L42.6633 48.9597L42.6282 48.7665C42.475 47.9422 42.1506 46.5229 41.6973 46.2415V46.2394L41.3752 46.0977C41.0539 46.0102 40.6757 46.0387 40.2512 46.1811C39.4759 46.3895 38.6498 46.4569 37.6574 46.3916C35.1178 46.1432 33.5926 44.4147 33.4776 41.6522C33.5922 38.9163 35.1178 37.1882 37.6692 36.9419Z" fill="black"/>
<path d="M102.312 49.6668C102.937 49.6529 104 49.2844 104 48.0412L103.988 46.0105L96.8531 46.0136C96.8531 46.0136 96.8652 43.6863 96.8652 43.3007C97.4505 43.3007 102.755 43.3007 102.755 43.3007L102.745 39.5568C102.745 39.5568 97.4582 39.563 96.8753 39.563C96.8739 39.1205 96.8753 37.6814 96.8753 37.2361C97.4585 37.2361 102.282 37.2295 102.282 37.2295C102.43 37.2319 103.238 37.2326 103.675 36.7963C103.98 36.4903 103.994 35.9331 103.994 35.643V33.5054H92.7705L92.7726 49.6797L102.312 49.6668Z" fill="black"/>
</svg>
